<svg width="1921" height="569" viewBox="0 0 1921 569" fill="none" xmlns="http://www.w3.org/2000/svg">
<path d="M894.314 161.662C685.152 174.352 676.704 15.596 680.62 -61.9546C1094.12 -60.2116 1879.6 -50.8432 1890.12 -53.7044C1890.14 -53.7379 1890.16 -53.7715 1890.18 -53.8051C1890.26 -53.77 1890.24 -53.7364 1890.12 -53.7044C1829.93 46.6996 1788.87 108.819 1899 205.284C2009.16 301.782 2065.23 377.997 1944.78 481.104C1824.34 584.211 1705.11 537.077 1621.39 455.12C1537.66 373.164 1406.94 523.858 1267.4 469.661C1127.86 415.464 1154.3 325.576 1144.02 242.297C1133.73 159.018 1155.77 145.799 894.314 161.662Z" fill="url(#paint0_linear)"/>
<path d="M1203.3 252.416C1187.12 142.89 1165.01 103.3 938.495 140.248C744.092 171.959 705.305 64.7957 705.305 -70.8828H1921.08C1917.16 -55.9275 1898.43 -3.84779 1854.9 84.8284C1800.47 195.674 1868.13 233.942 1921.08 288.045C1974.04 342.148 2035.87 317.477 1957.91 375.539C1879.96 433.601 1740.17 394.931 1665.15 346.107C1590.14 297.282 1482.77 417.364 1395.98 416.045C1309.2 414.725 1219.48 361.942 1203.3 252.416Z" fill="url(#paint1_linear)"/>
<path d="M1226.41 208.299C1210.23 98.7731 1173.46 78.9792 946.946 115.928C752.543 147.638 705.5 20.6786 705.5 -115L1944.19 -115C1940.27 -100.045 2007.04 -45.1762 1963.5 43.5C1909.08 154.345 1922.29 181.397 1975.24 235.5C2028.19 289.603 2053.2 262.856 1975.24 320.918C1897.29 378.98 1762.45 317.222 1687.43 268.398C1612.42 219.573 1505.88 373.247 1419.09 371.928C1332.31 370.608 1242.59 317.824 1226.41 208.299Z" fill="url(#paint2_linear)"/>
<defs>
<linearGradient id="paint0_linear" x1="680" y1="7" x2="1940.5" y2="-2.00005" gradientUnits="userSpaceOnUse">
<stop stop-color="#97C93D"/>
<stop offset="0.957106" stop-color="#4FBA69"/>
</linearGradient>
<linearGradient id="paint1_linear" x1="1235" y1="319.5" x2="1683.05" y2="-57.5492" gradientUnits="userSpaceOnUse">
<stop stop-color="#97C93D"/>
<stop offset="0.957106" stop-color="#4FBA69"/>
</linearGradient>
<linearGradient id="paint2_linear" x1="338.5" y1="-75" x2="1881.83" y2="-275.121" gradientUnits="userSpaceOnUse">
<stop stop-color="#97C93D"/>
<stop offset="0.957106" stop-color="#4FBA69"/>
</linearGradient>
</defs>
</svg>
