<svg width="1921" height="524" viewBox="0 0 1921 524" fill="none" xmlns="http://www.w3.org/2000/svg">
<mask id="mask0" mask-type="alpha" maskUnits="userSpaceOnUse" x="0" y="0" width="1921" height="719">
<rect width="1921" height="719" fill="#C4C4C4"/>
</mask>
<g mask="url(#mask0)">
<path d="M-308.401 397C-308.401 397 -273.47 120.785 -308.401 -15.4277C407.592 -234.78 1770.95 -640.987 1787.6 -651.592C1787.62 -651.661 1787.63 -651.73 1787.65 -651.799C1787.8 -651.78 1787.79 -651.711 1787.6 -651.592C1737.51 -445.598 1699.91 -316.094 1942.22 -208.501C2184.61 -100.872 2322.56 0.774862 2169.72 243.846C2016.89 486.918 2046 372.824 1787.65 350.5C1576.27 332.234 1390.95 540.682 1120.5 522C850.052 503.318 634.268 369.606 417.999 317C103.499 240.5 -308.401 397 -308.401 397Z" fill="url(#paint0_linear)"/>
<path d="M755 411C557.5 304 126.335 114.794 -245.5 300.5C-564.623 459.88 -197.553 190.484 -270.516 -44.1421L1831.9 -697.949C1833.16 -669.977 1828.78 -569.846 1801.18 -393.087C1766.68 -172.138 1904.26 -142.347 2024.92 -77.2636C2145.58 -12.1798 2239.24 -88.0938 2135.66 54.2333C2032.08 196.56 2216.79 201.645 1867 165.5C1567 134.5 1545.5 317.43 1236 437.5C1143.42 473.414 931.29 506.509 755 411Z" fill="url(#paint1_linear)"/>
<path d="M686.765 341.663C458.75 215.397 106.196 -22.5424 -265.638 163.163C-584.762 322.543 -192.675 145.752 -265.638 -88.8742L1876.4 -755.003C1877.66 -727.032 2022.63 -668.054 1995.03 -491.295C1960.53 -270.347 1997.93 -230.673 2118.59 -165.59C2157.16 -144.784 2196.08 -173.208 2227.81 -216.864C2226.94 -266.415 2220.16 -320.413 2259.77 -374.837C2330.24 -471.666 2295.33 -309.772 2227.81 -216.864C2229.22 -136.832 2215.23 -68.3982 1965.5 -28.4999C1361.5 68.0001 1527 201.5 1202 386C1065.31 463.596 881.5 449.5 686.765 341.663Z" fill="url(#paint2_linear)"/>
</g>
<defs>
<linearGradient id="paint0_linear" x1="-272.39" y1="104.152" x2="1902.52" y2="-589.268" gradientUnits="userSpaceOnUse">
<stop stop-color="#97C93D"/>
<stop offset="0.957106" stop-color="#4FBA69"/>
</linearGradient>
<linearGradient id="paint1_linear" x1="855.408" y1="346.087" x2="1427.45" y2="-546.884" gradientUnits="userSpaceOnUse">
<stop stop-color="#97C93D"/>
<stop offset="0.957106" stop-color="#4FBA69"/>
</linearGradient>
<linearGradient id="paint2_linear" x1="-878.772" y1="177.658" x2="1682.45" y2="-998.357" gradientUnits="userSpaceOnUse">
<stop stop-color="#97C93D"/>
<stop offset="0.957106" stop-color="#4FBA69"/>
</linearGradient>
</defs>
</svg>
